# xmcd
#
# Track frame offsets:
#	150
#	7483
#	20022
#	32188
#	56124
#	73299
#	92332
#	104550
#	117610
#	131014
#	145146
#	158901
#	171928
#	185145
#	203383
#	217101
#	233656
#	244421
#
# Disc length: 4142 seconds
#
# Revision: 1
# Processed by: cddbd v1.5.1PL2 Copyright (c) Steve Scherf et al.
# Submitted via: EasyCDDAExtractor 9.0.0.1
#
DISCID=19102c12
DTITLE=Alice Cooper - Savoy Cabaret New York City 15-08-81
DYEAR=1981
DGENRE=Hard Rock
TTITLE0=Intro
TTITLE1=Who Do You Think We Are
TTITLE2=Model Citizen
TTITLE3=Go To Hell
TTITLE4=Guilty
TTITLE5=Eighteen
TTITLE6=Cold Ethyl
TTITLE7=Only Women Bleed
TTITLE8=No More Mr Nice Guy
TTITLE9=Clones (We Are)
TTITLE10=Under My Wheels
TTITLE11=I Never Cry
TTITLE12=Grim Facts
TTITLE13=Pain
TTITLE14=Billion Dollar Babies
TTITLE15=Generation Landslide
TTITLE16=Who Do You Think Are Reprise
TTITLE17=School's Out
EXTD=
EXTT0=
EXTT1=
EXTT2=
EXTT3=
EXTT4=
EXTT5=
EXTT6=
EXTT7=
EXTT8=
EXTT9=
EXTT10=
EXTT11=
EXTT12=
EXTT13=
EXTT14=
EXTT15=
EXTT16=
EXTT17=
PLAYORDER=
